<svg xmlns="http://www.w3.org/2000/svg" xmlns:xlink="http://www.w3.org/1999/xlink" width="500" zoomAndPan="magnify" viewBox="0 0 375 374.999991" height="500" preserveAspectRatio="xMidYMid meet" version="1.0"><defs><clipPath id="9fe6b1f35f"><path d="M 11.183594 11.183594 L 363.816406 11.183594 L 363.816406 363.816406 L 11.183594 363.816406 Z M 11.183594 11.183594 " clip-rule="nonzero"/></clipPath><clipPath id="8e873d77f4"><path d="M 187.5 11.183594 C 90.125 11.183594 11.183594 90.125 11.183594 187.5 C 11.183594 284.875 90.125 363.816406 187.5 363.816406 C 284.875 363.816406 363.816406 284.875 363.816406 187.5 C 363.816406 90.125 284.875 11.183594 187.5 11.183594 Z M 187.5 11.183594 " clip-rule="nonzero"/></clipPath><clipPath id="a6917494ec"><path d="M 119.324219 128 L 255.824219 128 L 255.824219 248 L 119.324219 248 Z M 119.324219 128 " clip-rule="nonzero"/></clipPath><clipPath id="0c2ffc3b7c"><path d="M 187.574219 119.398438 L 323.777344 119.398438 L 323.777344 255.601562 L 187.574219 255.601562 Z M 187.574219 119.398438 " clip-rule="nonzero"/></clipPath></defs><g clip-path="url(#9fe6b1f35f)"><g clip-path="url(#8e873d77f4)"><path fill="#f18484" d="M 11.183594 11.183594 L 363.816406 11.183594 L 363.816406 363.816406 L 11.183594 363.816406 Z M 11.183594 11.183594 " fill-opacity="1" fill-rule="nonzero"/></g></g><g clip-path="url(#a6917494ec)"><path fill="#000000" d="M 145.726562 215.269531 L 136.675781 215.269531 C 136.121094 215.265625 135.570312 215.238281 135.015625 215.183594 C 134.464844 215.128906 133.914062 215.042969 133.371094 214.933594 C 132.828125 214.824219 132.289062 214.691406 131.757812 214.527344 C 131.226562 214.363281 130.703125 214.175781 130.191406 213.964844 C 129.679688 213.75 129.179688 213.511719 128.6875 213.25 C 128.199219 212.988281 127.722656 212.699219 127.261719 212.390625 C 126.800781 212.082031 126.355469 211.75 125.925781 211.398438 C 125.496094 211.046875 125.085938 210.671875 124.695312 210.277344 C 124.300781 209.886719 123.929688 209.472656 123.578125 209.042969 C 123.222656 208.613281 122.894531 208.167969 122.585938 207.707031 C 122.277344 207.246094 121.992188 206.769531 121.730469 206.277344 C 121.464844 205.789062 121.230469 205.285156 121.015625 204.773438 C 120.800781 204.257812 120.613281 203.738281 120.453125 203.207031 C 120.289062 202.671875 120.15625 202.136719 120.046875 201.589844 C 119.9375 201.042969 119.851562 200.496094 119.796875 199.941406 C 119.742188 199.390625 119.714844 198.835938 119.710938 198.277344 L 119.710938 174.921875 C 119.714844 174.363281 119.742188 173.808594 119.796875 173.257812 C 119.851562 172.703125 119.9375 172.15625 120.046875 171.609375 C 120.15625 171.0625 120.289062 170.527344 120.453125 169.992188 C 120.613281 169.460938 120.800781 168.9375 121.015625 168.425781 C 121.230469 167.914062 121.464844 167.410156 121.730469 166.921875 C 121.992188 166.429688 122.277344 165.953125 122.585938 165.492188 C 122.894531 165.03125 123.222656 164.582031 123.578125 164.152344 C 123.929688 163.722656 124.300781 163.3125 124.695312 162.917969 C 125.085938 162.527344 125.496094 162.152344 125.925781 161.800781 C 126.355469 161.449219 126.800781 161.117188 127.261719 160.808594 C 127.722656 160.496094 128.199219 160.210938 128.6875 159.949219 C 129.179688 159.6875 129.679688 159.449219 130.191406 159.234375 C 130.703125 159.023438 131.226562 158.832031 131.757812 158.671875 C 132.289062 158.507812 132.828125 158.375 133.371094 158.265625 C 133.914062 158.152344 134.464844 158.070312 135.015625 158.015625 C 135.570312 157.960938 136.121094 157.929688 136.675781 157.929688 L 147.648438 157.929688 L 176.082031 129.453125 C 176.378906 129.152344 176.710938 128.902344 177.078125 128.703125 C 177.449219 128.503906 177.839844 128.363281 178.25 128.277344 C 178.664062 128.195312 179.078125 128.171875 179.496094 128.214844 C 179.914062 128.253906 180.316406 128.355469 180.703125 128.515625 C 181.09375 128.675781 181.449219 128.886719 181.773438 129.15625 C 182.097656 129.421875 182.378906 129.730469 182.609375 130.078125 C 182.84375 130.429688 183.019531 130.804688 183.140625 131.207031 C 183.261719 131.609375 183.324219 132.023438 183.320312 132.441406 L 183.320312 242.886719 C 183.324219 243.304688 183.261719 243.71875 183.140625 244.121094 C 183.019531 244.523438 182.84375 244.898438 182.609375 245.25 C 182.378906 245.597656 182.097656 245.90625 181.773438 246.171875 C 181.449219 246.441406 181.09375 246.652344 180.703125 246.8125 C 180.316406 246.972656 179.914062 247.074219 179.496094 247.113281 C 179.078125 247.15625 178.664062 247.132812 178.25 247.050781 C 177.839844 246.964844 177.449219 246.824219 177.078125 246.625 C 176.710938 246.425781 176.378906 246.175781 176.082031 245.875 L 146.40625 216.152344 C 146.140625 215.886719 145.914062 215.59375 145.726562 215.269531 Z M 221.503906 246.441406 C 221.144531 246.628906 220.769531 246.777344 220.382812 246.894531 C 219.996094 247.007812 219.597656 247.085938 219.195312 247.125 C 218.792969 247.164062 218.390625 247.164062 217.988281 247.125 C 217.582031 247.089844 217.1875 247.011719 216.800781 246.898438 C 216.410156 246.785156 216.035156 246.636719 215.675781 246.449219 C 215.316406 246.265625 214.976562 246.046875 214.660156 245.796875 C 214.339844 245.546875 214.046875 245.265625 213.78125 244.960938 C 213.515625 244.65625 213.285156 244.324219 213.082031 243.976562 C 212.878906 243.625 212.710938 243.257812 212.578125 242.875 C 212.445312 242.492188 212.351562 242.097656 212.292969 241.695312 C 212.234375 241.296875 212.214844 240.890625 212.234375 240.488281 C 212.253906 240.082031 212.3125 239.683594 212.40625 239.289062 C 212.5 238.894531 212.632812 238.511719 212.800781 238.144531 C 212.96875 237.773438 213.171875 237.425781 213.40625 237.09375 C 213.640625 236.765625 213.90625 236.460938 214.199219 236.179688 C 214.492188 235.902344 214.808594 235.652344 215.148438 235.433594 C 219.367188 233.007812 223.203125 230.078125 226.65625 226.640625 C 230.105469 223.207031 233.058594 219.386719 235.507812 215.179688 C 236.703125 213.089844 237.757812 210.929688 238.671875 208.699219 C 239.585938 206.472656 240.351562 204.195312 240.972656 201.867188 C 241.589844 199.539062 242.054688 197.179688 242.367188 194.792969 C 242.679688 192.402344 242.835938 190.003906 242.835938 187.597656 C 242.835938 185.1875 242.679688 182.789062 242.367188 180.398438 C 242.054688 178.011719 241.589844 175.652344 240.972656 173.324219 C 240.351562 170.996094 239.585938 168.71875 238.671875 166.492188 C 237.757812 164.261719 236.703125 162.105469 235.507812 160.015625 C 233.058594 155.804688 230.105469 151.984375 226.65625 148.550781 C 223.203125 145.117188 219.367188 142.1875 215.148438 139.761719 C 214.808594 139.542969 214.492188 139.292969 214.199219 139.011719 C 213.90625 138.734375 213.640625 138.425781 213.40625 138.097656 C 213.171875 137.765625 212.96875 137.417969 212.800781 137.046875 C 212.632812 136.679688 212.5 136.296875 212.40625 135.902344 C 212.3125 135.511719 212.253906 135.109375 212.234375 134.707031 C 212.214844 134.300781 212.234375 133.898438 212.292969 133.496094 C 212.351562 133.09375 212.445312 132.703125 212.578125 132.320312 C 212.710938 131.9375 212.878906 131.570312 213.082031 131.21875 C 213.285156 130.867188 213.515625 130.539062 213.78125 130.230469 C 214.046875 129.925781 214.339844 129.648438 214.660156 129.398438 C 214.976562 129.144531 215.316406 128.929688 215.675781 128.742188 C 216.035156 128.558594 216.410156 128.40625 216.800781 128.292969 C 217.1875 128.179688 217.582031 128.105469 217.988281 128.066406 C 218.390625 128.027344 218.792969 128.027344 219.195312 128.066406 C 219.597656 128.105469 219.996094 128.183594 220.382812 128.296875 C 220.769531 128.414062 221.144531 128.5625 221.503906 128.75 C 224.078125 130.234375 226.542969 131.878906 228.902344 133.6875 C 231.257812 135.492188 233.488281 137.449219 235.589844 139.546875 C 237.691406 141.648438 239.644531 143.878906 241.453125 146.234375 C 243.265625 148.59375 244.910156 151.058594 246.398438 153.632812 C 247.882812 156.207031 249.195312 158.867188 250.332031 161.613281 C 251.472656 164.359375 252.425781 167.167969 253.195312 170.042969 C 253.960938 172.914062 254.542969 175.824219 254.929688 178.769531 C 255.316406 181.71875 255.511719 184.679688 255.511719 187.652344 C 255.511719 190.625 255.316406 193.585938 254.929688 196.535156 C 254.542969 199.484375 253.960938 202.390625 253.195312 205.265625 C 252.425781 208.136719 251.472656 210.945312 250.332031 213.691406 C 249.195312 216.4375 247.882812 219.097656 246.398438 221.671875 C 244.910156 224.246094 243.265625 226.710938 241.453125 229.070312 C 239.644531 231.425781 237.691406 233.65625 235.589844 235.757812 C 233.488281 237.859375 231.257812 239.8125 228.902344 241.617188 C 226.542969 243.425781 224.078125 245.070312 221.503906 246.554688 Z M 210.894531 228.046875 C 214.445312 225.984375 217.667969 223.5 220.566406 220.59375 C 223.464844 217.683594 225.941406 214.453125 227.996094 210.898438 C 229.011719 209.132812 229.90625 207.308594 230.683594 205.429688 C 231.460938 203.546875 232.109375 201.621094 232.636719 199.65625 C 233.160156 197.6875 233.554688 195.695312 233.820312 193.675781 C 234.085938 191.660156 234.21875 189.632812 234.21875 187.597656 C 234.21875 185.558594 234.085938 183.535156 233.820312 181.515625 C 233.554688 179.496094 233.160156 177.503906 232.636719 175.535156 C 232.109375 173.570312 231.460938 171.644531 230.683594 169.765625 C 229.90625 167.882812 229.011719 166.058594 227.996094 164.296875 C 225.941406 160.738281 223.464844 157.507812 220.566406 154.601562 C 217.667969 151.691406 214.445312 149.207031 210.894531 147.144531 C 210.535156 146.9375 210.152344 146.765625 209.757812 146.632812 C 209.363281 146.496094 208.957031 146.402344 208.542969 146.347656 C 208.128906 146.292969 207.710938 146.28125 207.292969 146.308594 C 206.875 146.335938 206.464844 146.40625 206.0625 146.515625 C 205.660156 146.625 205.269531 146.769531 204.894531 146.957031 C 204.519531 147.140625 204.167969 147.363281 203.835938 147.617188 C 203.503906 147.875 203.199219 148.160156 202.925781 148.472656 C 202.648438 148.789062 202.40625 149.128906 202.199219 149.492188 C 201.988281 149.855469 201.816406 150.234375 201.683594 150.628906 C 201.550781 151.027344 201.457031 151.433594 201.402344 151.847656 C 201.347656 152.265625 201.335938 152.679688 201.363281 153.097656 C 201.390625 153.515625 201.457031 153.925781 201.566406 154.332031 C 201.675781 154.734375 201.824219 155.125 202.007812 155.5 C 202.195312 155.878906 202.414062 156.230469 202.667969 156.5625 C 202.925781 156.894531 203.210938 157.199219 203.523438 157.472656 C 203.839844 157.75 204.175781 157.992188 204.539062 158.203125 C 207.125 159.699219 209.476562 161.507812 211.589844 163.625 C 213.703125 165.738281 215.507812 168.09375 217.003906 170.683594 C 217.558594 171.648438 218.066406 172.636719 218.523438 173.652344 C 218.980469 174.667969 219.386719 175.703125 219.746094 176.757812 C 220.101562 177.808594 220.40625 178.878906 220.65625 179.964844 C 220.910156 181.046875 221.105469 182.144531 221.25 183.246094 C 221.394531 184.351562 221.484375 185.457031 221.519531 186.570312 C 221.554688 187.683594 221.535156 188.796875 221.464844 189.90625 C 221.390625 191.015625 221.261719 192.121094 221.078125 193.21875 C 220.898438 194.320312 220.664062 195.40625 220.375 196.480469 C 220.085938 197.554688 219.746094 198.613281 219.351562 199.65625 C 218.960938 200.695312 218.515625 201.714844 218.023438 202.714844 C 217.53125 203.710938 216.992188 204.683594 216.402344 205.628906 C 215.816406 206.574219 215.183594 207.488281 214.503906 208.371094 C 213.828125 209.253906 213.109375 210.097656 212.347656 210.910156 C 211.585938 211.722656 210.789062 212.496094 209.953125 213.230469 C 209.117188 213.960938 208.246094 214.652344 207.339844 215.300781 C 206.4375 215.945312 205.503906 216.546875 204.539062 217.105469 C 204.199219 217.324219 203.882812 217.574219 203.589844 217.851562 C 203.296875 218.132812 203.03125 218.4375 202.796875 218.765625 C 202.5625 219.097656 202.359375 219.449219 202.191406 219.816406 C 202.023438 220.183594 201.890625 220.566406 201.796875 220.960938 C 201.703125 221.355469 201.644531 221.753906 201.625 222.160156 C 201.605469 222.566406 201.625 222.96875 201.683594 223.367188 C 201.742188 223.769531 201.835938 224.164062 201.96875 224.546875 C 202.101562 224.929688 202.269531 225.296875 202.472656 225.648438 C 202.675781 226 202.910156 226.328125 203.171875 226.632812 C 203.4375 226.9375 203.730469 227.21875 204.050781 227.46875 C 204.367188 227.71875 204.707031 227.9375 205.066406 228.121094 C 205.425781 228.308594 205.800781 228.457031 206.191406 228.570312 C 206.578125 228.683594 206.976562 228.761719 207.378906 228.796875 C 207.78125 228.835938 208.183594 228.835938 208.585938 228.796875 C 208.988281 228.757812 209.386719 228.679688 209.773438 228.566406 C 210.164062 228.453125 210.535156 228.300781 210.894531 228.113281 Z M 200.308594 209.652344 C 200.789062 209.371094 201.257812 209.078125 201.71875 208.769531 C 202.179688 208.457031 202.628906 208.132812 203.066406 207.792969 C 203.503906 207.457031 203.933594 207.101562 204.347656 206.734375 C 204.765625 206.367188 205.167969 205.988281 205.558594 205.59375 C 205.949219 205.199219 206.328125 204.796875 206.695312 204.378906 C 207.058594 203.960938 207.410156 203.53125 207.746094 203.089844 C 208.082031 202.648438 208.402344 202.195312 208.710938 201.734375 C 209.019531 201.273438 209.308594 200.800781 209.585938 200.320312 C 209.863281 199.835938 210.125 199.347656 210.367188 198.847656 C 210.613281 198.351562 210.839844 197.84375 211.050781 197.332031 C 211.265625 196.820312 211.457031 196.300781 211.636719 195.773438 C 211.8125 195.246094 211.972656 194.71875 212.117188 194.179688 C 212.261719 193.644531 212.386719 193.105469 212.492188 192.558594 C 212.601562 192.015625 212.691406 191.46875 212.765625 190.917969 C 212.835938 190.367188 212.890625 189.8125 212.925781 189.261719 C 212.960938 188.707031 212.980469 188.152344 212.980469 187.597656 C 212.980469 187.042969 212.960938 186.488281 212.925781 185.933594 C 212.890625 185.378906 212.835938 184.828125 212.765625 184.277344 C 212.691406 183.726562 212.601562 183.179688 212.492188 182.632812 C 212.386719 182.089844 212.261719 181.546875 212.117188 181.011719 C 211.972656 180.476562 211.8125 179.945312 211.636719 179.417969 C 211.457031 178.894531 211.265625 178.375 211.050781 177.859375 C 210.839844 177.347656 210.613281 176.839844 210.367188 176.34375 C 210.125 175.84375 209.863281 175.355469 209.585938 174.875 C 209.308594 174.394531 209.019531 173.921875 208.710938 173.457031 C 208.402344 172.996094 208.082031 172.546875 207.746094 172.105469 C 207.410156 171.664062 207.058594 171.234375 206.695312 170.816406 C 206.328125 170.398438 205.949219 169.992188 205.558594 169.597656 C 205.167969 169.203125 204.765625 168.824219 204.347656 168.457031 C 203.933594 168.089844 203.503906 167.738281 203.066406 167.398438 C 202.628906 167.058594 202.179688 166.734375 201.71875 166.425781 C 201.257812 166.113281 200.789062 165.820312 200.308594 165.542969 C 199.949219 165.300781 199.566406 165.101562 199.164062 164.941406 C 198.761719 164.777344 198.347656 164.660156 197.921875 164.582031 C 197.496094 164.503906 197.066406 164.472656 196.632812 164.484375 C 196.199219 164.496094 195.773438 164.550781 195.351562 164.648438 C 194.929688 164.746094 194.523438 164.886719 194.128906 165.070312 C 193.734375 165.25 193.367188 165.46875 193.015625 165.726562 C 192.667969 165.988281 192.351562 166.277344 192.0625 166.601562 C 191.773438 166.921875 191.519531 167.273438 191.300781 167.648438 C 191.082031 168.023438 190.90625 168.414062 190.769531 168.828125 C 190.632812 169.238281 190.535156 169.660156 190.484375 170.089844 C 190.433594 170.519531 190.425781 170.953125 190.460938 171.382812 C 190.5 171.816406 190.578125 172.242188 190.703125 172.65625 C 190.824219 173.074219 190.988281 173.472656 191.195312 173.855469 C 191.398438 174.234375 191.640625 174.59375 191.917969 174.925781 C 192.195312 175.261719 192.503906 175.5625 192.84375 175.832031 C 193.179688 176.101562 193.542969 176.332031 193.929688 176.53125 C 195.90625 177.679688 197.464844 179.242188 198.613281 181.21875 C 199.167969 182.191406 199.589844 183.214844 199.878906 184.296875 C 200.164062 185.378906 200.308594 186.476562 200.308594 187.597656 C 200.308594 188.714844 200.164062 189.816406 199.878906 190.894531 C 199.589844 191.976562 199.167969 193.003906 198.613281 193.972656 C 197.472656 195.953125 195.910156 197.507812 193.929688 198.640625 C 193.5625 198.84375 193.214844 199.085938 192.894531 199.359375 C 192.570312 199.632812 192.277344 199.9375 192.019531 200.269531 C 191.757812 200.601562 191.53125 200.957031 191.339844 201.335938 C 191.148438 201.710938 190.996094 202.105469 190.882812 202.515625 C 190.773438 202.921875 190.699219 203.335938 190.671875 203.757812 C 190.640625 204.179688 190.652344 204.601562 190.707031 205.023438 C 190.761719 205.441406 190.855469 205.851562 190.992188 206.253906 C 191.128906 206.652344 191.300781 207.039062 191.511719 207.402344 C 191.726562 207.769531 191.972656 208.113281 192.25 208.429688 C 192.53125 208.746094 192.839844 209.03125 193.175781 209.285156 C 193.515625 209.542969 193.875 209.761719 194.253906 209.945312 C 194.636719 210.128906 195.03125 210.273438 195.441406 210.378906 C 195.851562 210.480469 196.265625 210.546875 196.6875 210.566406 C 197.109375 210.589844 197.53125 210.566406 197.949219 210.503906 C 198.367188 210.441406 198.773438 210.339844 199.171875 210.195312 C 199.570312 210.050781 199.949219 209.871094 200.308594 209.652344 Z M 200.308594 209.652344 " fill-opacity="1" fill-rule="evenodd"/></g><g clip-path="url(#0c2ffc3b7c)"><path fill="#f18484" d="M 187.574219 119.398438 L 323.777344 119.398438 L 323.777344 255.601562 L 187.574219 255.601562 Z M 187.574219 119.398438 " fill-opacity="1" fill-rule="nonzero"/></g><path fill="#000000" d="M 231.347656 169.882812 C 229.453125 167.984375 226.378906 167.984375 224.480469 169.882812 L 213.339844 181.023438 L 202.203125 169.882812 C 200.304688 167.984375 197.230469 167.984375 195.335938 169.882812 C 193.4375 171.78125 193.4375 174.855469 195.335938 176.753906 L 206.472656 187.890625 L 195.335938 199.027344 C 193.4375 200.925781 193.4375 204 195.335938 205.898438 C 196.28125 206.847656 197.527344 207.320312 198.769531 207.320312 C 200.011719 207.320312 201.253906 206.847656 202.203125 205.898438 L 213.339844 194.757812 L 224.480469 205.898438 C 225.429688 206.847656 226.671875 207.320312 227.914062 207.320312 C 229.15625 207.320312 230.398438 206.847656 231.347656 205.898438 C 233.246094 204 233.246094 200.925781 231.347656 199.027344 L 220.210938 187.890625 L 231.347656 176.753906 C 233.246094 174.855469 233.246094 171.78125 231.347656 169.882812 Z M 231.347656 169.882812 " fill-opacity="1" fill-rule="nonzero"/></svg>